<?xml version="1.0" encoding="utf-8"?>

<!-- Uploaded to: SVG Repo, www.svgrepo.com, Generator: SVG Repo Mixer Tools -->
<svg fill="#000000" height="800px" width="800px" version="1.1" id="Icons" xmlns="http://www.w3.org/2000/svg" xmlns:xlink="http://www.w3.org/1999/xlink" 
	 viewBox="0 0 32 32" xml:space="preserve">
<path d="M27,11c0-2-2.2-3.6-5.6-4.4C20.6,3.2,19,1,17,1s-3.6,2.2-4.4,5.6C9.2,7.4,7,9,7,11c0,2,2.2,3.6,5.6,4.4
	c0.3,1.2,0.6,2.2,1.1,3.1c0.3,0.5,0.9,0.7,1.4,0.4c0.5-0.3,0.7-0.9,0.4-1.4c-0.3-0.5-0.5-1.1-0.7-1.8c0.7,0.1,1.5,0.1,2.2,0.1
	c0.8,0,1.5,0,2.2-0.1c-0.3,1-0.7,1.9-1.1,2.5c-0.3,0.4-0.2,1.1,0.2,1.4c0.2,0.1,0.4,0.2,0.6,0.2c0.3,0,0.6-0.1,0.8-0.4
	c0.7-1,1.3-2.4,1.7-4C24.8,14.6,27,13,27,11z M17,3c0.7,0,1.6,1.2,2.2,3.3c-0.7-0.1-1.5-0.1-2.2-0.1s-1.5,0-2.2,0.1
	C15.4,4.2,16.3,3,17,3z M9,11c0-0.7,1.2-1.6,3.3-2.2c-0.1,0.7-0.1,1.5-0.1,2.2c0,0.8,0,1.5,0.1,2.2C10.2,12.6,9,11.7,9,11z M17,13.9
	c-1,0-1.9-0.1-2.7-0.2c-0.1-0.8-0.2-1.7-0.2-2.7c0-1,0.1-1.9,0.2-2.7C15.1,8.2,16,8.1,17,8.1s1.9,0.1,2.7,0.2
	c0.1,0.8,0.2,1.7,0.2,2.7c0,0.9-0.1,1.8-0.2,2.7C18.9,13.8,18,13.9,17,13.9z M21.7,13.2c0.1-0.7,0.1-1.5,0.1-2.2
	c0-0.8,0-1.5-0.1-2.2C23.8,9.4,25,10.3,25,11C25,11.7,23.8,12.6,21.7,13.2z"/>
<path d="M29.9,17.5C29.7,17.2,29.4,17,29,17c-2.2,0-4.3,1-5.6,2.8L22.5,21c-1.1,1.3-2.8,2-4.5,2h-3c-0.6,0-1-0.4-1-1s0.4-1,1-1h1.9
	c1.6,0,3.1-1.3,3.1-2.9c0,0,0-0.1,0-0.1c0-0.5-0.5-1-1-1l-6.1,0c-3.6,0-6.5,1.6-8.1,4.2l-2.7,4.2c-0.2,0.3-0.2,0.7,0,1l3,5
	c0.1,0.2,0.4,0.4,0.6,0.5c0.1,0,0.1,0,0.2,0c0.2,0,0.4-0.1,0.6-0.2c3.8-2.5,8.2-3.8,12.7-3.8c3.3,0,6.3-1.8,7.9-4.7l2.7-4.8
	C30,18.2,30,17.8,29.9,17.5z"/>
</svg>